<svg width="147" height="73" viewBox="0 0 147 73" fill="none" xmlns="http://www.w3.org/2000/svg">
<g clip-path="url(#clip0)">
<g clip-path="url(#clip1)">
<path d="M104.927 28.1614C102.532 28.1614 100.424 29.1556 98.8757 30.7111C93.1757 26.7503 85.4958 24.2006 76.9858 23.928L81.4085 3.91556L95.4908 7.09061C95.4908 10.5543 98.3009 13.3766 101.75 13.3766C105.262 13.3766 108.088 10.4741 108.088 7.01043C108.088 3.54674 105.278 0.644287 101.75 0.644287C99.2908 0.644287 97.1673 2.1356 96.1135 4.17213L80.5622 0.70843C79.7799 0.499966 79.0135 1.06121 78.8059 1.84696L73.9522 23.912C65.5059 24.2648 57.9059 26.8144 52.19 30.7752C50.6412 29.1556 48.4538 28.1614 46.0589 28.1614C37.1816 28.1614 34.2757 40.124 42.4026 44.2131C42.1152 45.4799 41.9874 46.8269 41.9874 48.1739C41.9874 61.6118 57.0597 72.5 75.5648 72.5C94.1496 72.5 109.222 61.6118 109.222 48.1739C109.222 46.8269 109.078 45.4158 108.727 44.149C116.694 40.0438 113.756 28.1614 104.927 28.1614ZM55.2874 45.063C55.2874 41.5351 58.0975 38.6968 61.6261 38.6968C65.0748 38.6968 67.8849 41.5191 67.8849 45.063C67.8849 48.5267 65.0748 51.349 61.6261 51.349C58.1135 51.365 55.2874 48.5267 55.2874 45.063ZM89.5034 60.0563C83.6916 65.8933 67.2942 65.8933 61.4824 60.0563C60.8438 59.4951 60.8438 58.5008 61.4824 57.8594C62.0412 57.2982 63.0311 57.2982 63.59 57.8594C68.0286 62.4296 82.7496 62.5098 87.3799 57.8594C87.9387 57.2982 88.9286 57.2982 89.4874 57.8594C90.1421 58.5008 90.1421 59.4951 89.5034 60.0563ZM89.3757 51.365C85.9269 51.365 83.1169 48.5427 83.1169 45.079C83.1169 41.5512 85.9269 38.7129 89.3757 38.7129C92.8883 38.7129 95.7143 41.5351 95.7143 45.079C95.6984 48.5267 92.8883 51.365 89.3757 51.365Z" fill="#BDBDBD"/>
</g>
</g>
<defs>
<clipPath id="clip0">
<rect width="151" height="72" fill="white" transform="translate(0 0.5)"/>
</clipPath>
<clipPath id="clip1">
<rect width="76" height="72" fill="white" transform="translate(37.5 0.5)"/>
</clipPath>
</defs>
</svg>
